<svg width="13" height="14" viewBox="0 0 13 14" fill="none" xmlns="http://www.w3.org/2000/svg">
<path d="M6.92863 13.0885C10.2836 13.0885 13.0033 10.4769 13.0033 7.25521C13.0033 4.03355 10.2836 1.42188 6.92863 1.42188C3.57368 1.42188 0.853943 4.03355 0.853943 7.25521C0.853943 10.4769 3.57368 13.0885 6.92863 13.0885Z" stroke="#FFCA42"/>
<path d="M6.92876 13.5886C6.06265 13.5886 5.20497 13.4248 4.40477 13.1065C3.60458 12.7882 2.8775 12.3217 2.26506 11.7336C1.65263 11.1455 1.16683 10.4473 0.835358 9.67887C0.503888 8.91048 0.333313 8.08692 0.333313 7.25521C0.333313 6.42351 0.503888 5.59995 0.835358 4.83155C1.16683 4.06316 1.65263 3.36497 2.26506 2.77687C2.8775 2.18877 3.60458 1.72225 4.40477 1.40397C5.20497 1.08569 6.06265 0.921875 6.92876 0.921875V7.25521V13.5886Z" fill="#FFCA42"/>
</svg>
